<svg width="46" height="46" viewBox="0 0 46 46" fill="none" xmlns="http://www.w3.org/2000/svg">
<g id="sports-icon" clip-path="url(#clip0_1_12)">
<g id="Group">
<path id="Vector" d="M20.2356 36.2012C30.0316 36.2012 37.9728 28.26 37.9728 18.464C37.9728 8.66798 30.0316 0.726746 20.2356 0.726746C10.4396 0.726746 2.49835 8.66798 2.49835 18.464C2.49835 28.26 10.4396 36.2012 20.2356 36.2012Z" fill="#FF8D5C"/>
<path id="Vector_2" d="M25.9767 1.67709C29.1411 10.9545 24.1857 21.0406 14.9083 24.2051C11.1935 25.4722 7.16349 25.4722 3.44868 24.2051C6.62084 33.4748 16.7069 38.4177 25.9767 35.2457C35.2464 32.0736 40.1893 21.9873 37.0172 12.7177C36.141 10.1572 34.6905 7.83107 32.7769 5.91742C30.8633 4.00377 28.5372 2.55332 25.9767 1.67709Z" fill="#FF774D"/>
<path id="Vector_3" d="M44.639 31.7849C44.9811 30.8054 45.2439 29.8 45.4246 28.7784C45.4951 28.3734 45.449 27.9568 45.2917 27.577C45.1344 27.1973 44.8724 26.8701 44.5362 26.6336C43.6858 26.0388 42.7888 25.5135 41.8541 25.0628L42.504 28.4239L44.639 31.7849Z" fill="#B56959"/>
<path id="Vector_4" d="M18.5314 43.9986C17.0036 43.4112 15.5567 42.6319 14.2255 41.6794C13.8989 41.4437 13.6443 41.1217 13.4902 40.7496C13.336 40.3775 13.2884 39.9698 13.3527 39.5722C13.6198 37.9615 14.0901 36.3912 14.7524 34.8989L17.5685 39.4487L18.5314 43.9986Z" fill="#A85B4A"/>
<path id="Vector_5" d="M21.5439 44.8876C24.7453 45.5518 28.7282 45.5097 33.2416 43.6403C38.5046 41.4603 41.5287 38.0214 43.2646 34.8729L41.8541 28.8886L38.7037 23.8526C35.2494 22.8527 30.6777 22.5583 25.4126 24.7392C20.8989 26.6089 18.0527 29.3958 16.2586 32.1293L18.1483 38.8108L21.5439 44.8876Z" fill="#B56959"/>
<path id="Vector_6" d="M33.8871 41.503C26.3476 41.5029 20.1876 35.4828 20.0142 27.9453C18.5591 29.1432 17.293 30.5538 16.2586 32.1293L18.1482 38.8108L21.5439 44.8875C24.7453 45.5517 28.7282 45.5097 33.2416 43.6402C34.989 42.9259 36.6346 41.9842 38.1356 40.8394C36.7626 41.2802 35.3292 41.5041 33.8871 41.503Z" fill="#A85B4A"/>
<path id="Vector_7" d="M38.6985 23.8521L43.2635 34.8729C43.8083 33.8838 44.2684 32.8504 44.6389 31.7837L41.8555 25.0639C40.8392 24.5716 39.7832 24.1663 38.6985 23.8521Z" fill="#F2F2FF"/>
<path id="Vector_8" d="M18.519 43.9933C19.5011 44.3735 20.5128 44.6723 21.5439 44.8867L16.2597 32.1294C15.6821 33.0101 15.178 33.9367 14.7524 34.9001L18.519 43.9933Z" fill="#CCCCF0"/>
<path id="Vector_9" d="M8.14499 43.2278C12.3425 43.2278 15.7453 39.825 15.7453 35.6275C15.7453 31.43 12.3425 28.0272 8.14499 28.0272C3.94747 28.0272 0.544708 31.43 0.544708 35.6275C0.544708 39.825 3.94747 43.2278 8.14499 43.2278Z" fill="#F2F2FF"/>
<path id="Vector_10" d="M11.5674 28.8394C10.8918 34.1716 6.38455 38.187 1.01009 38.2447C2.45654 42.1852 6.82353 44.2071 10.7641 42.7606C14.7046 41.3141 16.7265 36.9472 15.28 33.0066C14.6157 31.197 13.2886 29.7074 11.5674 28.8394Z" fill="#E6E6FF"/>
<path id="Vector_11" d="M44.8493 26.1885C43.975 25.5764 43.0526 25.0362 42.0912 24.573C41.0524 24.0702 39.9733 23.6557 38.8651 23.3339C38.8616 23.3328 38.8586 23.3308 38.855 23.3298C38.5475 23.2407 38.238 23.1592 37.9266 23.0851C38.3192 21.5761 38.5177 20.0232 38.5171 18.4639C38.5171 8.38347 30.3161 0.182373 20.2356 0.182373C10.1551 0.182373 1.95407 8.38355 1.95407 18.464C1.94779 21.9149 2.92378 25.2964 4.76798 28.2132C4.16659 28.4887 3.60074 28.8359 3.08279 29.2473C-0.440989 32.0429 -1.03117 37.1659 1.76445 40.6895C4.56008 44.2132 9.68291 44.8035 13.2067 42.0079C13.3074 41.9279 13.4063 41.8456 13.5032 41.761C13.8319 42.1169 22.031 48.8731 33.45 44.143C38.0294 42.2463 41.4919 39.2157 43.7413 35.1357L43.7405 35.1353C44.2997 34.1197 44.7722 33.0586 45.1527 31.9634C45.5049 30.9563 45.7752 29.9224 45.9609 28.8717C46.0477 28.3652 45.9893 27.8444 45.7927 27.3696C45.596 26.8947 45.2689 26.4853 44.8493 26.1885ZM44.8884 28.685C44.8007 29.1861 44.6916 29.6832 44.5616 30.175L42.9384 26.2562C43.3781 26.512 43.8067 26.7865 44.223 27.0788C44.4742 27.2565 44.6699 27.5016 44.7877 27.7858C44.9054 28.07 44.9404 28.3818 44.8884 28.685ZM36.8596 22.8605C36.4366 22.7833 36.0111 22.72 35.5839 22.6708C35.4444 16.2411 32.0824 12.3862 29.7351 9.56375C28.6208 8.22399 27.6342 7.03604 27.0582 5.85402C29.7702 5.99094 31.9008 6.83118 33.7457 7.84188C35.392 9.93331 36.5302 12.3784 37.0705 14.9847C37.6109 17.5909 37.5387 20.2869 36.8596 22.8605ZM26.9792 23.5817C26.868 19.2838 25.9459 12.7583 21.3166 6.52634C22.7998 6.12237 24.3248 5.89208 25.8612 5.84008C26.454 7.3192 27.5932 8.69075 28.8982 10.2598C31.3923 13.2587 34.3385 16.8032 34.498 22.5766C31.9509 22.4379 29.4004 22.7788 26.9792 23.5817ZM31.8039 5.75603C30.1556 5.1215 28.4104 4.77503 26.6446 4.73174C26.4739 3.99781 26.4622 3.23585 26.6104 2.49704C28.5225 3.26412 30.2815 4.36793 31.8039 5.75603ZM25.5761 2.1212C25.3798 2.9823 25.3648 3.87483 25.5322 4.74202C23.8566 4.82818 22.1972 5.1126 20.5885 5.58932C19.4205 4.13452 18.0947 2.8138 16.6354 1.65139C19.6049 1.01653 22.6895 1.17862 25.5761 2.1212ZM15.2785 2.00057C15.8515 2.40001 17.5723 3.68612 19.4626 5.93615C18.3365 6.30737 16.6671 6.85008 14.1552 8.49861C12.0933 6.62772 9.73526 6.27984 8.06243 6.33454C10.072 4.31493 12.5515 2.82575 15.2785 2.00057ZM6.97159 7.53643C8.26502 7.33105 10.9523 7.21459 13.2317 9.13696C7.46832 13.3179 4.83505 19.1314 3.76007 23.3891C2.12243 17.8998 3.32666 11.9556 6.97159 7.53643ZM4.46087 25.3132C4.94636 22.523 6.87744 15.0091 14.0182 9.91284C15.4857 11.6522 15.0323 13.4862 14.3106 16.4046C13.5251 19.581 12.5215 23.6468 13.5447 29.5367C12.5085 28.6163 11.2545 27.9756 9.90148 27.6754C8.54844 27.3752 7.14115 27.4254 5.81291 27.8212C5.29338 27.0242 4.84113 26.1853 4.46087 25.3132ZM1.13533 34.8202C1.3163 33.2097 2.05025 31.7119 3.21204 30.582C3.35592 30.9808 3.47698 31.3875 3.57464 31.8L2.78046 32.2899C2.16171 32.6717 2.74554 33.59 3.35192 33.2164L3.79953 32.9403C3.88401 33.4894 3.93801 34.0427 3.96144 34.5978L3.17929 34.5078C2.46447 34.4257 2.33896 35.5068 3.05474 35.5891L3.97033 35.6946C3.95188 36.3879 3.89079 37.0794 3.78742 37.7652L3.06885 37.3516C2.44461 36.9917 1.90233 37.9359 2.5257 38.2949L3.57934 38.9015C3.45634 39.4715 3.30656 40.0354 3.13052 40.5914C2.38515 39.8415 1.81863 38.9331 1.47317 37.9339C1.12772 36.9346 1.01223 35.8703 1.13533 34.8202ZM7.33767 42.6373C6.14268 42.5019 5.00256 42.0616 4.02677 41.3586C4.18799 40.8779 4.38492 40.2492 4.56887 39.4709L5.02109 39.7313C5.63932 40.0876 6.19432 39.1508 5.56424 38.7879L4.79977 38.3478C4.94696 37.5126 5.03538 36.6681 5.06438 35.8205L5.87641 35.9141C6.59141 35.9967 6.71692 34.915 6.00096 34.8327L5.06508 34.725C5.04088 33.9174 4.95489 33.1129 4.80787 32.3184L5.86239 31.668C6.47495 31.2901 5.90445 30.3636 5.29093 30.7414L4.55172 31.1974C4.43029 30.7385 4.27849 30.2881 4.09732 29.8493C7.0215 27.7974 11.0187 28.2591 13.398 30.9236C13.1228 31.309 12.8733 31.7121 12.6514 32.1305L12.0351 31.5183C11.5241 31.0102 10.7573 31.7834 11.2679 32.2905L12.1477 33.1644C11.8241 33.9045 11.5576 34.6682 11.3505 35.449L10.4137 35.341C9.69885 35.2578 9.57316 36.3401 10.2891 36.4224L11.1031 36.5162C10.938 37.348 10.8317 38.1904 10.7848 39.0371L9.93985 39.292C9.24793 39.5009 9.56724 40.5419 10.2543 40.3343L10.7541 40.1835C10.7562 40.9853 10.803 41.6179 10.853 42.1447C9.74275 42.6073 8.53229 42.7769 7.33767 42.6373ZM11.8997 41.601C11.8554 41.0194 11.8385 40.4361 11.8492 39.8529L13.0106 39.5025C13.7013 39.294 13.3838 38.2523 12.6962 38.4602L11.9059 38.6986C11.9618 38.0078 12.0601 37.3211 12.2003 36.6424L13.1108 36.7473C13.8258 36.8299 13.9513 35.7482 13.2353 35.6659L12.4588 35.5765C12.6079 35.0427 12.786 34.5175 12.9924 34.0032L13.3608 34.3691C13.8652 34.8704 14.6449 34.1102 14.1279 33.5969L13.4698 32.943C13.6576 32.5647 13.8663 32.1971 14.095 31.8419C16.1881 35.1235 15.2247 39.4805 11.9431 41.5736L11.8997 41.601ZM14.2737 40.9916C14.885 40.2967 15.3719 39.5015 15.713 38.6411L17.5056 42.9688C15.9755 42.2523 14.5545 41.3117 14.2737 40.9916ZM18.9319 43.5679L16.1837 36.9333C16.3666 35.814 16.312 34.6688 16.0237 33.5719C16.0704 33.4883 16.1162 33.4042 16.1642 33.3212L20.6336 44.1113C20.0581 43.9572 19.4902 43.7759 18.9319 43.5679ZM33.0333 43.1374C29.3105 44.6795 25.5782 45.1067 21.9358 44.4103L16.8743 32.1908C17.6124 31.1032 18.4661 30.0986 19.4205 29.1946C19.9439 28.6995 19.1952 27.9088 18.6724 28.4039C17.5866 29.4313 16.6238 30.5813 15.8035 31.8309C15.8015 31.834 15.8004 31.8374 15.7984 31.8406C15.7129 31.971 15.6292 32.1025 15.5471 32.2351C15.3963 31.9087 15.224 31.5926 15.0315 31.2888C13.4851 24.7842 14.4009 20.5738 15.3672 16.6661C16.0828 13.7721 16.6573 11.442 14.9218 9.30045C17.3571 7.73153 19.0466 7.20571 20.1954 6.84852C24.8733 12.9444 25.8135 19.4306 25.8943 23.9639C24.6179 24.4445 23.3861 25.0365 22.2134 25.7331C21.5884 26.1065 22.1606 27.0328 22.7718 26.6675C26.085 24.6882 31.7749 22.5125 38.2966 24.3045L42.6594 34.8373C40.5297 38.5808 37.2929 41.3729 33.0333 43.1374ZM43.3161 33.5776L39.6518 24.7309C40.257 24.9462 40.8513 25.1913 41.4325 25.4651L44.0563 31.7994C43.8389 32.4039 43.5918 32.9974 43.3161 33.5776Z" fill="black"/>
<path id="Vector_12" d="M20.7107 27.94C21.0113 27.94 21.255 27.6964 21.255 27.3958C21.255 27.0952 21.0113 26.8515 20.7107 26.8515C20.4101 26.8515 20.1664 27.0952 20.1664 27.3958C20.1664 27.6964 20.4101 27.94 20.7107 27.94Z" fill="black"/>
<path id="Vector_13" d="M36.536 26.9524C35.3478 27.1474 34.1436 27.4091 32.9232 27.7375L32.5663 26.876C32.2908 26.2113 31.2848 26.6268 31.5606 27.2925L31.8685 28.0359C30.5916 28.4159 29.3053 28.8653 28.0095 29.3842L27.7124 28.6671C27.4367 28.0009 26.4314 28.419 26.7067 29.0836L27.0037 29.8004C25.7235 30.3479 24.4961 30.9396 23.3216 31.5757L23.0138 30.8328C22.7376 30.166 21.7332 30.5856 22.0082 31.2493L22.3647 32.1099C21.6488 32.5222 20.9465 32.9576 20.259 33.4156C19.6526 33.8201 20.2718 34.7159 20.8631 34.3211C21.4912 33.9026 22.1322 33.5037 22.7851 33.125L23.1942 34.1126C23.4693 34.7771 24.4768 34.3644 24.1998 33.6961L23.7403 32.5867C24.9092 31.9497 26.1358 31.3562 27.4202 30.8061L27.8928 31.9469C28.1679 32.6113 29.1754 32.1987 28.8984 31.5304L28.426 30.3898C29.7216 29.8708 31.0086 29.4231 32.2872 29.0466L32.7466 30.1558C33.0221 30.8208 34.029 30.4071 33.7524 29.7393L33.3433 28.7516C34.4798 28.451 35.6028 28.2093 36.7123 28.0264C37.4225 27.91 37.2477 26.8361 36.536 26.9524Z" fill="black"/>
</g>
</g>
<defs>
<clipPath id="clip0_1_12">
<rect width="46" height="46" fill="white"/>
</clipPath>
</defs>
</svg>
